<svg version="1.1" id="md-berlin" xmlns="http://www.w3.org/2000/svg" xmlns:xlink="http://www.w3.org/1999/xlink" x="0px" y="0px"
	 width="349.007px" height="393.918px" viewBox="0 0 349.007 393.918" style="enable-background:new 0 0 349.007 393.918;"
	 xml:space="preserve">
<style type="text/css">
<![CDATA[
	.st0{fill:#E86E2D;}
	.st1{fill:#808184;}
	.st2{fill:#808184;}
]]>
</style>
<g>
	<path class="st2" d="M341.532,3H7.475C5.007,3,3,5.007,3,7.475v282.55c0,1.594,0.858,3.081,2.239,3.88l167.037,96.416
		c0.678,0.39,1.454,0.598,2.238,0.598c0.784,0,1.559-0.207,2.24-0.6l167.017-96.416c1.378-0.797,2.236-2.284,2.236-3.878V7.475
		C346.007,5.007,344,3,341.532,3z M337.057,14.95v270.759v1.732l-1.5,0.865l-159.543,92.104l-1.5,0.866l-1.5-0.865L13.45,288.307
		l-1.5-0.866v-1.732V14.95v-3h3h319.107h3V14.95z"/>
	<g>
		<path class="st2" d="M59.832,68.552v24.4h-5.596V47.924h4.419l7.129,23.693h0.829l7.246-23.693h4.244v45.028h-5.6V68.375
			l-5.48,20.332h-1.886L59.832,68.552z"/>
		<path class="st2" d="M92.49,92.952h-5.774V47.924h5.774V92.952z"/>
		<path class="st2" d="M106.222,77.509v10.551h4.953V77.864l-9.608-13.732c-0.647-1.001-1.119-1.886-1.119-2.947
			c0-3.83,0-5.598,0-9.606c0-1.886,1.472-3.654,3.536-3.654c3.478,0,6.072,0,9.55,0c2.239,0,3.536,1.592,3.536,3.772v9.194h-5.778
			v-8.075h-4.949v7.898l9.194,12.966c0.825,1.297,1.534,2.475,1.534,3.772c0,5.009,0,6.719,0,11.729
			c0,2.062-1.355,3.772-3.536,3.772c-3.478,0-6.072,0-9.55,0c-1.828,0-3.536-1.355-3.536-3.714V77.509H106.222z"/>
		<path class="st2" d="M130.039,77.509v10.551h4.953V77.864l-9.608-13.732c-0.646-1.001-1.119-1.886-1.119-2.947
			c0-3.83,0-5.598,0-9.606c0-1.886,1.472-3.654,3.536-3.654c3.478,0,6.072,0,9.55,0c2.238,0,3.536,1.592,3.536,3.772v9.194h-5.778
			v-8.075h-4.95v7.898l9.194,12.966c0.825,1.297,1.534,2.475,1.534,3.772c0,5.009,0,6.719,0,11.729c0,2.062-1.355,3.772-3.536,3.772
			c-3.478,0-6.072,0-9.55,0c-1.828,0-3.536-1.355-3.536-3.714V77.509H130.039z"/>
		<path class="st2" d="M154.659,92.952h-5.774V47.924h5.774V92.952z"/>
		<path class="st2" d="M182.734,89.298c0,2.356-2.061,3.654-3.535,3.654c-4.713,0-8.013,0-12.73,0c-1.472,0-3.536-1.297-3.536-3.654
			c0-14.793,0-22.926,0-37.72c0-2.358,2.064-3.654,3.536-3.654c4.717,0,8.017,0,12.73,0c1.475,0,3.535,1.295,3.535,3.654
			C182.734,66.372,182.734,74.504,182.734,89.298z M176.959,52.815h-8.252v35.246h8.252V52.815z"/>
		<path class="st2" d="M196.532,69.141v23.811h-5.363V47.924h3.005l10.43,24.636V47.924h5.363v45.028h-3.121L196.532,69.141z"/>
		<path class="st2" d="M236.381,47.924h9.961c4.24,0,8.369,2.357,8.369,7.544c0,12.377,0,17.857,0,30.234
			c0,4.951-4.009,7.25-8.137,7.25h-10.193V47.924z M242.156,88.061h2.769c2.653,0,4.009-1.71,4.009-3.772
			c0-10.255,0-17.564,0-27.819c0-2.181-1.533-3.654-3.772-3.654h-3.005V88.061z"/>
		<path class="st2" d="M276.994,92.952l-1.355-8.723h-8.132l-1.414,8.723h-5.72l8.369-45.028h5.956l8.249,45.028H276.994z
			 M271.867,61.891h-0.411l-3.125,17.328h6.483L271.867,61.891z"/>
		<path class="st2" d="M291.551,75.919l-7.602-27.996h5.894l4.833,18.86l4.478-18.86h5.716l-7.544,27.996v17.032h-5.774V75.919z"/>
	</g>
	<g>
		<path class="st2" d="M176.655,145.284l-38.011,21.934l0.011,43.865l38,21.927l37.967-21.927v-43.865L176.655,145.284z
			 M176.655,227.544l-30.976-17.868l12.879-7.7l-2.428-4.06l-12.751,7.628v-35.602l30.914-17.833v14.872h4.721V152.11l30.877,17.833
			v35.217l-12.384-6.986l-2.337,4.122l12.751,7.191L176.655,227.544z"/>
		<path class="st2" d="M149,173.154l27.64,47.824l27.632-47.824H149z M176.64,186.339l-14.434-8.342h28.853L176.64,186.339z
			 M174.224,190.525v16.603l-14.416-24.939L174.224,190.525z M179.057,190.525l14.408-8.336l-14.408,24.939V190.525z"/>
	</g>
	<path class="st1" d="M178.584,161.015"/>
	<path class="st1" d="M178.584,200.355"/>
	<path class="st0" d="M240.997,196.787V181.09l52.59-28.932l-0.105-32.095l-55.134,30.391l-61.707-35.638l-61.607,35.578
		l-55.35-30.227l0.192,31.699l52.401,28.812v16.005l-52.593-28.721l0.192,31.699l117.153,64.41l116.558-64.123l-0.105-32.091
		L240.997,196.787z M223.434,216.169l-46.794,27.025l-46.808-27.025v-54.045l46.808-27.023l46.794,27.023V216.169z"/>
</g>
</svg>
