<?xml version="1.0" encoding="UTF-8" standalone="no"?>
<!-- Created with Inkscape (http://www.inkscape.org/) -->

<svg
   xmlns:dc="http://purl.org/dc/elements/1.1/"
   xmlns:cc="http://creativecommons.org/ns#"
   xmlns:rdf="http://www.w3.org/1999/02/22-rdf-syntax-ns#"
   xmlns:svg="http://www.w3.org/2000/svg"
   xmlns="http://www.w3.org/2000/svg"
   xmlns:sodipodi="http://sodipodi.sourceforge.net/DTD/sodipodi-0.dtd"
   xmlns:inkscape="http://www.inkscape.org/namespaces/inkscape"
   width="210mm"
   height="297mm"
   viewBox="0 0 210 297"
   version="1.1"
   id="svg5915"
   inkscape:version="0.92.2 (5c3e80d, 2017-08-06)"
   sodipodi:docname="md-logo.svg">
  <defs
     id="defs5909">
    <clipPath
       clipPathUnits="userSpaceOnUse"
       id="clipPath44">
      <path
         d="m 3643.372,2637.319 c -93.397,-55.256 -186.792,-109.533 -280.188,-163.81 v 0 c -226.399,-132.025 -452.798,-264.54 -679.196,-396.076 v 0 c -17.604,-10.269 -23.962,-21.515 -23.962,-42.541 v 0 c 1.468,-119.312 0.979,-239.113 0.979,-358.914 v 0 c 3.422,-134.471 -0.489,-268.94 3.912,-402.921 v 0 c 3.423,-114.911 1.956,-229.823 0.977,-344.734 v 0 c 0,-20.537 6.358,-32.273 23.96,-42.542 v 0 c 323.707,-183.857 646.925,-367.714 969.655,-552.062 v 0 c 13.202,-7.335 23.47,-7.335 36.185,0 v 0 c 321.751,188.259 643.5,376.029 965.741,563.798 v 0 c 15.158,8.802 21.026,19.071 20.536,36.673 v 0 c -2.934,237.157 0.979,473.825 -4.4,710.982 v 0 c -2.933,133.492 -1.956,266.985 -0.978,400.967 v 0 c 0,21.025 -7.335,31.782 -24.937,41.563 v 0 c -322.241,182.879 -643.992,365.759 -965.742,549.617 v 0 c -7.825,4.4 -14.67,6.6 -21.455,6.6 v 0 c -6.784,0 -13.508,-2.2 -21.087,-6.6"
         id="path42"
         inkscape:connector-curvature="0" />
    </clipPath>
    <radialGradient
       fx="0"
       fy="0"
       cx="0"
       cy="0"
       r="1"
       gradientUnits="userSpaceOnUse"
       gradientTransform="matrix(1086.9021,0,0,1086.9021,3671.0134,1486.0692)"
       spreadMethod="pad"
       id="radialGradient56">
      <stop
         style="stop-opacity:1;stop-color:#e2c5b3"
         offset="0"
         id="stop50" />
      <stop
         style="stop-opacity:1;stop-color:#e2c5b3"
         offset="0.5305"
         id="stop52" />
      <stop
         style="stop-opacity:1;stop-color:#d1b59c"
         offset="1"
         id="stop54" />
    </radialGradient>
    <clipPath
       clipPathUnits="userSpaceOnUse"
       id="clipPath66">
      <path
         d="m 3115.883,1822 4.383,-423.934 549.79,-331.77 9.479,403.812 525.144,314.707 -517.56,267.311 -24.646,53.084 z"
         id="path64"
         inkscape:connector-curvature="0" />
    </clipPath>
    <clipPath
       clipPathUnits="userSpaceOnUse"
       id="clipPath94">
      <path
         d="m 3060.78,1846.32 h 35.67 v -720.5 h -35.67 z"
         id="path92"
         inkscape:connector-curvature="0" />
    </clipPath>
    <clipPath
       clipPathUnits="userSpaceOnUse"
       id="clipPath110">
      <path
         d="m 3060.75,1162.07 h 628.34 V 784.222 h -628.34 z"
         id="path108"
         inkscape:connector-curvature="0" />
    </clipPath>
    <clipPath
       clipPathUnits="userSpaceOnUse"
       id="clipPath126">
      <path
         d="m 3652.88,1162.07 h 628.35 V 784.222 h -628.35 z"
         id="path124"
         inkscape:connector-curvature="0" />
    </clipPath>
    <clipPath
       clipPathUnits="userSpaceOnUse"
       id="clipPath142">
      <path
         d="m 3652.88,2187.89 h 628.35 v -378.05 h -628.35 z"
         id="path140"
         inkscape:connector-curvature="0" />
    </clipPath>
    <clipPath
       clipPathUnits="userSpaceOnUse"
       id="clipPath158">
      <path
         d="m 3060.75,2187.89 h 628.34 v -378.05 h -628.34 z"
         id="path156"
         inkscape:connector-curvature="0" />
    </clipPath>
    <clipPath
       clipPathUnits="userSpaceOnUse"
       id="clipPath174">
      <path
         d="m 2825.14,1981.61 h 36.48 V 990.125 h -36.48 z"
         id="path172"
         inkscape:connector-curvature="0" />
    </clipPath>
    <clipPath
       clipPathUnits="userSpaceOnUse"
       id="clipPath190">
      <path
         d="m 2825.24,1026.36 h 863.85 V 512.422 h -863.85 z"
         id="path188"
         inkscape:connector-curvature="0" />
    </clipPath>
    <clipPath
       clipPathUnits="userSpaceOnUse"
       id="clipPath206">
      <path
         d="m 3652.88,1026.36 h 863.58 V 512.422 h -863.58 z"
         id="path204"
         inkscape:connector-curvature="0" />
    </clipPath>
    <clipPath
       clipPathUnits="userSpaceOnUse"
       id="clipPath222">
      <path
         d="m 3652.88,1981.78 h 863.58 v -513.95 h -863.58 z"
         id="path220"
         inkscape:connector-curvature="0" />
    </clipPath>
    <clipPath
       clipPathUnits="userSpaceOnUse"
       id="clipPath238">
      <path
         d="m 3652.88,2459.68 h 863.58 v -513.74 h -863.58 z"
         id="path236"
         inkscape:connector-curvature="0" />
    </clipPath>
    <clipPath
       clipPathUnits="userSpaceOnUse"
       id="clipPath254">
      <path
         d="m 2825.24,2459.68 h 863.85 v -513.74 h -863.85 z"
         id="path252"
         inkscape:connector-curvature="0" />
    </clipPath>
    <clipPath
       clipPathUnits="userSpaceOnUse"
       id="clipPath270">
      <path
         d="m 3652.73,1503.99 h 35.75 V 512.422 h -35.75 z"
         id="path268"
         inkscape:connector-curvature="0" />
    </clipPath>
  </defs>
  <sodipodi:namedview
     id="base"
     pagecolor="#ffffff"
     bordercolor="#666666"
     borderopacity="1.0"
     inkscape:pageopacity="0.0"
     inkscape:pageshadow="2"
     inkscape:zoom="0.35"
     inkscape:cx="400"
     inkscape:cy="560"
     inkscape:document-units="mm"
     inkscape:current-layer="layer1"
     showgrid="false"
     inkscape:window-width="1920"
     inkscape:window-height="1136"
     inkscape:window-x="0"
     inkscape:window-y="27"
     inkscape:window-maximized="1" />
  <metadata
     id="metadata5912">
    <rdf:RDF>
      <cc:Work
         rdf:about="">
        <dc:format>image/svg+xml</dc:format>
        <dc:type
           rdf:resource="http://purl.org/dc/dcmitype/StillImage" />
        <dc:title></dc:title>
      </cc:Work>
    </rdf:RDF>
  </metadata>
  <g
     inkscape:label="Capa 1"
     inkscape:groupmode="layer"
     id="layer1">
    <g
       id="g5730"
       transform="translate(36.285702,-27.970241)">
      <g
         id="g5388">
        <g
           transform="matrix(0.35277777,0,0,-0.35277777,-1177.879,726.00189)"
           id="g38">
          <g
             id="g40"
             clip-path="url(#clipPath44)">
            <g
               id="g46">
              <g
                 id="g48">
                <path
                   d="m 3643.372,2637.319 c -93.397,-55.256 -186.792,-109.533 -280.188,-163.81 v 0 c -226.399,-132.025 -452.798,-264.54 -679.196,-396.076 v 0 c -17.604,-10.269 -23.962,-21.515 -23.962,-42.541 v 0 c 1.468,-119.312 0.979,-239.113 0.979,-358.914 v 0 c 3.422,-134.471 -0.489,-268.94 3.912,-402.921 v 0 c 3.423,-114.911 1.956,-229.823 0.977,-344.734 v 0 c 0,-20.537 6.358,-32.273 23.96,-42.542 v 0 c 323.707,-183.857 646.925,-367.714 969.655,-552.062 v 0 c 13.202,-7.335 23.47,-7.335 36.185,0 v 0 c 321.751,188.259 643.5,376.029 965.741,563.798 v 0 c 15.158,8.802 21.026,19.071 20.536,36.673 v 0 c -2.934,237.157 0.979,473.825 -4.4,710.982 v 0 c -2.933,133.492 -1.956,266.985 -0.978,400.967 v 0 c 0,21.025 -7.335,31.782 -24.937,41.563 v 0 c -322.241,182.879 -643.992,365.759 -965.742,549.617 v 0 c -7.825,4.4 -14.67,6.6 -21.455,6.6 v 0 c -6.784,0 -13.508,-2.2 -21.087,-6.6"
                   style="fill:url(#radialGradient56);stroke:none"
                   id="path58"
                   inkscape:connector-curvature="0" />
              </g>
            </g>
          </g>
        </g>
        <g
           transform="matrix(0.35277777,0,0,-0.35277777,-1177.879,726.00189)"
           id="g60">
          <g
             id="g62"
             clip-path="url(#clipPath66)">
            <g
               id="g68"
               transform="translate(3843.0508,1483.7902)">
              <path
                 d="m 0,0 c 0,28.663 -0.269,57.057 0.268,85.72 0.267,10.447 -3.215,17.948 -12.323,23.037 -49.021,28.127 -98.043,56.522 -147.064,84.649 -8.84,5.09 -17.947,5.09 -26.787,0 -49.289,-28.662 -98.578,-57.325 -147.867,-85.452 -8.573,-4.822 -11.788,-11.251 -11.788,-20.627 0.269,-56.789 0.269,-113.311 0,-170.101 0,-9.375 3.483,-17.143 10.984,-21.43 50.628,-29.734 100.989,-60.004 152.957,-87.595 6.697,-3.483 13.126,-3.483 20.358,0.536 49.825,28.394 99.918,56.789 149.742,84.916 8.305,4.555 12.055,10.716 11.788,20.627 C -0.269,-57.058 0,-28.395 0,0 m -634.599,-86.524 c -19.554,11.251 -39.109,22.77 -58.664,34.02 -9.376,5.358 -13.662,12.858 -13.662,23.841 0.268,37.771 0.268,75.541 -0.267,113.311 -0.268,11.519 3.482,11.787 12.054,6.965 12.858,-7.232 25.984,-13.661 38.842,-20.358 28.931,-17.144 58.397,-32.681 88.399,-47.682 30.27,-16.341 60.272,-32.681 90.274,-49.289 7.769,-4.286 9.107,-0.804 9.107,6.161 -0.267,17.412 -0.267,34.824 0,52.236 0,6.696 -2.678,11.251 -8.036,14.197 -28.394,15.537 -57.057,31.074 -85.719,46.61 -26.52,17.412 -55.987,29.199 -83.042,45.271 -16.876,9.644 -33.752,19.555 -51.165,28.931 -6.428,3.482 -10.447,7.5 -10.447,15.269 v 132.062 c 35.36,-18.483 69.38,-36.163 103.401,-53.574 28.127,-17.144 57.325,-32.146 86.255,-47.147 17.68,-9.643 35.092,-19.019 52.772,-28.93 8.304,-4.554 15.805,-4.554 23.841,0.536 20.894,12.858 42.056,25.448 63.486,37.77 64.023,36.967 128.045,73.666 192.067,110.365 7.769,4.554 16.34,4.018 24.109,-0.268 7.501,-4.018 14.733,-8.304 21.966,-12.59 78.488,-45.003 156.975,-90.274 235.463,-135.545 6.428,-3.75 12.858,-6.161 20.09,-2.143 19.02,10.983 38.307,21.965 57.326,32.948 29.466,11.787 55.986,28.931 83.309,44.468 29.735,16.072 59.469,31.877 89.203,48.217 14.733,8.037 14.465,8.305 14.733,-8.036 0.803,-36.431 -1.339,-72.862 1.875,-109.561 1.072,-10.983 -3.214,-20.894 -13.661,-27.055 -13.126,-7.501 -25.985,-15.269 -39.111,-22.77 -40.18,-19.823 -79.023,-41.789 -117.865,-64.022 -19.019,-9.643 -38.038,-19.019 -57.058,-28.663 -8.303,-4.286 -12.053,-11.25 -12.053,-20.626 0.267,-15.537 0.535,-31.074 0,-46.878 -0.269,-9.644 3.214,-10.716 10.982,-6.43 20.358,11.519 40.985,22.77 61.344,34.288 12.055,6.429 24.644,12.323 36.43,19.02 30.003,16.876 61.613,31.609 90.542,50.36 10.984,2.411 19.556,10.18 29.735,14.733 6.43,2.947 8.84,1.608 8.84,-5.357 0.268,-40.985 0.536,-81.97 0.803,-122.955 0,-12.054 -8.303,-17.948 -17.679,-23.037 -18.751,-10.447 -37.235,-20.894 -55.718,-31.342 -35.628,-17.412 -70.184,-36.699 -104.74,-56.254 -26.251,-11.251 -51.164,-24.913 -75.809,-39.11 -85.72,-48.753 -173.048,-93.756 -259.035,-141.706 -17.145,-9.376 -31.074,-8.036 -45.539,1.339 -48.485,31.074 -100.454,55.719 -150.815,83.309 -42.056,23.039 -83.844,46.343 -126.705,68.309 -19.019,9.644 -35.628,23.037 -55.986,30.27 -33.217,21.698 -69.915,36.967 -104.472,56.522"
                 style="fill:#933817;fill-opacity:1;fill-rule:nonzero;stroke:none"
                 id="path70"
                 inkscape:connector-curvature="0" />
            </g>
            <g
               id="g72"
               transform="translate(3610.8018,1511.381)">
              <path
                 d="m 0,0 47.95,-27.323 c 1.339,-0.804 2.679,-2.143 2.679,-3.75 V -85.72 c 0,-4.286 -6.429,-5.893 -8.572,-2.143 L -5.625,-5.893 C -7.769,-1.875 -3.75,2.143 0,0 M 109.829,19.02 62.415,-8.304 c -1.339,-0.803 -2.946,-0.803 -4.286,0 L 10.715,19.02 c -3.75,2.143 -2.143,8.036 2.143,8.036 h 94.829 c 4.286,-0.268 5.893,-5.893 2.142,-8.036 M 72.059,-85.72 v 54.647 c 0,1.607 0.536,2.946 1.875,3.75 L 121.08,0 c 3.75,2.143 8.036,-2.143 5.894,-5.893 l -47.147,-81.97 c -2.411,-3.75 -7.768,-2.143 -7.768,2.143 M 175.995,48.218 H -55.183 c -3.213,0 -5.357,-3.215 -3.75,-6.161 L 56.522,-158.046 c 1.607,-2.947 5.893,-2.679 7.5,0 L 179.478,41.789 c 1.875,3.214 -0.269,6.429 -3.483,6.429"
                 style="fill:#933817;fill-opacity:1;fill-rule:nonzero;stroke:none"
                 id="path74"
                 inkscape:connector-curvature="0" />
            </g>
          </g>
        </g>
      </g>
      <g
         transform="matrix(0.35277777,0,0,-0.35277777,116.4148,196.13842)"
         id="g84">
        <path
           inkscape:connector-curvature="0"
           id="path86"
           style="fill:#ffffff;fill-opacity:1;fill-rule:nonzero;stroke:none"
           d="m 0,0 v -0.406 c -0.812,-0.406 -0.812,-0.732 -1.626,-1.138 l -1.625,-0.812 c 0,-0.813 -0.731,-0.813 -0.731,-1.625 -0.813,-0.326 -0.813,-0.732 -0.813,-1.138 -0.812,-0.406 -0.812,-1.219 -1.625,-1.625 v -1.544 c -0.731,-0.406 -0.731,-1.219 -1.544,-1.625 v -1.544 -1.625 c -0.812,-0.813 -0.812,-1.21 -0.812,-1.95 v -0.406 -652.647 l -556.277,320.96 V 315.841 L 9.507,647.527 565.702,326.567 Z M 601.455,347.206 18.201,684.011 c -0.812,0.406 -1.538,0.813 -2.35,1.219 0,0 -0.813,0 -1.625,0.406 0,0 -0.738,0.406 -1.55,0.406 -0.813,0 -0.813,0 -1.625,0.407 H 9.507 7.882 c -0.813,-0.407 -1.544,-0.407 -2.357,-0.407 0,0 -0.812,-0.406 -1.626,-0.406 0,0 -0.73,-0.406 -1.543,-0.406 0,-0.406 -0.813,-0.813 -1.626,-1.219 H 0 L -592.03,342.005 v -0.398 c -0.725,-0.414 -1.537,-0.739 -1.537,-1.145 -0.813,-0.406 -1.625,-0.813 -1.625,-0.813 -0.739,-0.813 -0.739,-0.813 -1.551,-1.625 0,0 0,-0.731 -0.813,-1.138 -0.812,-0.406 -0.812,-0.812 -0.812,-1.625 0,-0.406 -0.813,-0.812 -0.813,-0.812 0,-1.138 -0.731,-1.544 -0.731,-2.357 v -1.544 c -0.813,-0.406 -0.813,-1.218 -0.813,-1.625 v -1.942 -0.414 -684.011 -0.813 -1.544 c 0,-0.812 0,-1.219 0.813,-2.031 v -1.219 c 0,-0.731 0.731,-1.137 0.731,-1.95 l 0.813,-1.219 c 0,-0.722 0,-1.137 0.812,-1.536 0.813,-0.414 0.813,-0.812 0.813,-1.625 0.812,-0.414 0.812,-0.739 1.551,-1.145 0,0 0.812,-0.407 1.625,-1.219 0,0 0.812,-0.813 1.537,-0.813 v -0.406 L -8.776,-709.77 v -230.116 l -791.107,456.657 V 451.945 L 9.507,919.336 801.426,462.264 Z m 253.111,116.602 v 2.031 1.544 c -0.812,0.407 -0.812,0.813 -0.812,1.625 -0.732,0.813 -0.732,1.138 -0.732,1.95 h -0.812 v 0.813 c -0.813,0.812 -0.813,1.219 -1.625,1.95 0,0.406 -0.731,0.813 -0.731,1.219 -0.813,0.406 -0.813,0.812 -1.625,1.219 -0.813,0.406 -0.813,0.731 -1.625,1.146 l -0.732,0.398 -827.671,478.109 c -0.812,0.406 -1.538,0.812 -2.35,1.219 0,0 -0.813,0 -1.625,0.324 0,0 -0.738,0.407 -1.55,0.407 h -1.625 c 0,0.406 -0.813,0.406 -1.544,0.406 -0.813,0 -0.813,0 -1.625,-0.406 H 5.525 c 0,0 -0.812,-0.407 -1.626,-0.407 0,-0.324 -0.73,-0.324 -1.543,-0.324 0,-0.813 -0.813,-0.813 -1.626,-1.219 H 0 L -827.672,477.703 v -0.398 c -0.812,-0.415 -0.812,-0.74 -1.625,-1.146 -0.724,0 -0.724,-0.407 -1.537,-0.813 l -0.812,-1.219 c -0.813,-0.812 -0.813,-1.137 -1.551,-1.544 0,-0.406 0,-0.812 -0.813,-1.625 0,-0.406 0,-0.406 -0.812,-1.137 v -1.219 c -0.813,-1.219 -0.813,-1.625 -0.813,-1.625 v -2.356 -1.942 c -0.731,0 -0.731,0 -0.731,-0.415 v -955.812 c 0,0 0,-0.406 0.731,-0.406 v -1.95 -1.625 c 0,-0.813 0,-1.138 0.813,-1.544 v -1.625 c 0.812,-0.406 0.812,-1.219 0.812,-1.544 0.813,-0.398 0.813,-1.21 0.813,-1.625 0.738,-0.398 0.738,-0.813 1.551,-1.211 0,-0.333 0.812,-1.146 0.812,-1.146 0.813,-0.812 0.813,-0.812 1.537,-1.218 0.813,-0.407 0.813,-0.813 1.625,-1.219 v -0.325 L 0,-986.689 c 0.73,0 0.73,0 1.543,-0.407 0.813,-0.406 1.626,-0.812 2.356,-1.218 0.814,0 0.814,-0.407 1.626,-0.407 0.813,-0.406 2.357,-0.406 3.982,-0.406 1.544,0 3.169,0 3.981,0.406 0.738,0 0.738,0.407 0.738,0.407 1.625,0.406 2.437,0.812 3.163,1.218 l 0.812,0.407 827.671,477.703 c 8.694,5.119 11.863,15.844 6.338,24.539 -4.794,8.775 -15.845,11.538 -23.801,6.744 L 26.977,-939.886 v 230.116 l 583.985,336.806 c 8.694,5.208 11.132,15.926 6.338,24.62 -4.713,8.369 -15.845,11.538 -24.62,6.338 L 26.977,-668.085 v 642.327 l 818.895,472.096 v 0.406 c 1.544,0.813 2.357,1.626 3.169,2.438 0.813,0 0.813,0.325 0.813,0.325 0.731,1.219 1.543,2.438 2.356,3.25 v 0.731 l 0.812,0.407 c 0,0 0,1.219 0.732,1.625 0,0 0,1.138 0.812,1.544 v 1.625 1.95 c 0.813,0.415 0.813,1.227 0.813,1.227 0,0.813 0,1.536 -0.813,1.942" />
      </g>
      <g
         transform="matrix(0.35277777,0,0,-0.35277777,-1175.2834,725.85135)"
         id="g88">
        <g
           id="g90" />
        <g
           id="g102">
          <g
             id="g100"
             clip-path="url(#clipPath94)">
            <g
               id="g98"
               transform="translate(3079.0654,1125.8219)">
              <path
                 inkscape:connector-curvature="0"
                 id="path96"
                 style="fill:#fc9a38;fill-opacity:1;fill-rule:nonzero;stroke:none"
                 d="m 0,0 c -10.313,0 -18.283,8.369 -18.283,18.282 v 684.011 c 0,9.914 7.97,18.202 18.283,18.202 9.507,0 17.389,-8.288 17.389,-18.202 V 18.282 C 17.389,8.369 9.507,0 0,0" />
            </g>
          </g>
        </g>
      </g>
      <g
         transform="matrix(0.35277777,0,0,-0.35277777,-1175.2834,725.85135)"
         id="g104">
        <g
           id="g106" />
        <g
           id="g118">
          <g
             id="g116"
             clip-path="url(#clipPath110)">
            <g
               id="g114"
               transform="translate(3671.0137,784.2223)">
              <path
                 inkscape:connector-curvature="0"
                 id="path112"
                 style="fill:#fc9a38;fill-opacity:1;fill-rule:nonzero;stroke:none"
                 d="m 0,0 c -3.169,0 -6.338,0.812 -9.507,2.356 l -592.03,342.006 c -8.694,5.208 -11.051,15.926 -6.338,24.62 4.801,8.37 15.927,11.539 24.621,6.338 L 8.694,33.314 C 17.47,28.61 20.639,17.47 15.845,8.775 11.863,3.169 6.344,0 0,0" />
            </g>
          </g>
        </g>
      </g>
      <g
         transform="matrix(0.35277777,0,0,-0.35277777,-1175.2834,725.85135)"
         id="g120">
        <g
           id="g122" />
        <g
           id="g134">
          <g
             id="g132"
             clip-path="url(#clipPath126)">
            <g
               id="g130"
               transform="translate(3671.0137,784.2223)">
              <path
                 inkscape:connector-curvature="0"
                 id="path128"
                 style="fill:#d9621d;fill-opacity:1;fill-rule:nonzero;stroke:none"
                 d="m 0,0 c -6.338,0 -12.758,3.169 -15.927,8.775 -4.713,8.695 -1.544,19.835 6.42,24.539 l 592.68,342.006 c 8.775,5.201 19.907,2.032 24.62,-6.338 4.794,-8.694 2.356,-19.412 -6.338,-24.62 L 8.694,2.356 C 6.344,0.812 3.169,0 0,0" />
            </g>
          </g>
        </g>
      </g>
      <g
         transform="matrix(0.35277777,0,0,-0.35277777,-1175.2834,725.85135)"
         id="g136">
        <g
           id="g138" />
        <g
           id="g150">
          <g
             id="g148"
             clip-path="url(#clipPath142)">
            <g
               id="g146"
               transform="translate(4262.9619,1809.8414)">
              <path
                 inkscape:connector-curvature="0"
                 id="path144"
                 style="fill:#933817;fill-opacity:1;fill-rule:nonzero;stroke:none"
                 d="m 0,0 c -3.169,0 -6.338,0.812 -8.775,2.348 l -592.68,342.005 c -7.964,5.201 -11.133,16.333 -6.42,24.621 4.794,8.775 15.927,11.538 24.621,6.744 L 9.507,33.712 C 18.201,29 20.639,17.876 15.845,9.173 12.676,3.161 6.338,0 0,0" />
            </g>
          </g>
        </g>
      </g>
      <g
         transform="matrix(0.35277777,0,0,-0.35277777,-1175.2834,725.85135)"
         id="g152">
        <g
           id="g154" />
        <g
           id="g166">
          <g
             id="g164"
             clip-path="url(#clipPath158)">
            <g
               id="g162"
               transform="translate(3079.0654,1809.8414)">
              <path
                 inkscape:connector-curvature="0"
                 id="path160"
                 style="fill:#ababab;fill-opacity:1;fill-rule:nonzero;stroke:none"
                 d="M 0,0 C -6.42,0 -12.751,3.161 -15.927,9.173 -20.64,17.876 -18.283,29 -9.589,33.712 l 592.03,342.006 c 9.507,4.794 19.827,2.031 25.352,-6.744 4.794,-8.288 1.625,-19.42 -7.15,-24.621 L 8.694,2.348 C 5.525,0.812 2.355,0 0,0" />
            </g>
          </g>
        </g>
      </g>
      <g
         transform="matrix(0.35277777,0,0,-0.35277777,-1175.2834,725.85135)"
         id="g168">
        <g
           id="g170" />
        <g
           id="g182">
          <g
             id="g180"
             clip-path="url(#clipPath174)">
            <g
               id="g178"
               transform="translate(2843.3418,990.1246)">
              <path
                 inkscape:connector-curvature="0"
                 id="path176"
                 style="fill:#ababab;fill-opacity:1;fill-rule:nonzero;stroke:none"
                 d="m 0,0 c -9.507,0 -18.201,7.972 -18.201,17.876 v 955.812 c 0,9.913 8.694,17.795 18.201,17.795 9.507,0 18.282,-7.882 18.282,-17.795 V 17.876 C 18.282,7.972 9.507,0 0,0" />
            </g>
          </g>
        </g>
      </g>
      <g
         transform="matrix(0.35277777,0,0,-0.35277777,-1175.2834,725.85135)"
         id="g184">
        <g
           id="g186" />
        <g
           id="g198">
          <g
             id="g196"
             clip-path="url(#clipPath190)">
            <g
               id="g194"
               transform="translate(3671.0137,512.4215)">
              <path
                 inkscape:connector-curvature="0"
                 id="path192"
                 style="fill:#933817;fill-opacity:1;fill-rule:nonzero;stroke:none"
                 d="m 0,0 c -3.169,0 -6.338,0.812 -9.507,2.438 l -827.672,477.703 c -7.963,5.119 -11.132,15.844 -6.338,24.539 5.526,8.775 15.845,11.945 24.621,6.744 L 8.694,33.722 C 17.47,28.603 20.639,17.877 15.845,8.775 11.863,3.169 6.344,0 0,0" />
            </g>
          </g>
        </g>
      </g>
      <g
         transform="matrix(0.35277777,0,0,-0.35277777,-1175.2834,725.85135)"
         id="g200">
        <g
           id="g202" />
        <g
           id="g214">
          <g
             id="g212"
             clip-path="url(#clipPath206)">
            <g
               id="g210"
               transform="translate(3671.0137,512.4215)">
              <path
                 inkscape:connector-curvature="0"
                 id="path208"
                 style="fill:#933817;fill-opacity:1;fill-rule:nonzero;stroke:none"
                 d="m 0,0 c -6.338,0 -12.758,3.169 -15.927,8.775 -4.713,9.102 -1.544,19.828 6.42,24.947 l 828.409,477.702 c 7.956,5.201 19.007,2.031 23.801,-6.744 5.526,-8.695 2.357,-19.42 -6.338,-24.539 L 8.694,2.438 C 6.344,0.812 3.169,0 0,0" />
            </g>
          </g>
        </g>
      </g>
      <g
         transform="matrix(0.35277777,0,0,-0.35277777,-1175.2834,725.85135)"
         id="g216">
        <g
           id="g218" />
        <g
           id="g230">
          <g
             id="g228"
             clip-path="url(#clipPath222)">
            <g
               id="g226"
               transform="translate(3671.0137,1467.8273)">
              <path
                 inkscape:connector-curvature="0"
                 id="path224"
                 style="fill:#d9621d;fill-opacity:1;fill-rule:nonzero;stroke:none"
                 d="m 0,0 c -6.338,0 -12.758,3.575 -15.927,9.182 -4.713,8.694 -1.544,19.42 6.42,24.539 l 828.409,477.703 c 7.956,5.201 19.007,2.04 23.801,-6.338 5.526,-8.686 2.357,-19.42 -6.338,-24.621 L 8.694,2.438 C 6.344,0.812 3.169,0 0,0" />
            </g>
          </g>
        </g>
      </g>
      <g
         transform="matrix(0.35277777,0,0,-0.35277777,-1175.2834,725.85135)"
         id="g232">
        <g
           id="g234" />
        <g
           id="g246">
          <g
             id="g244"
             clip-path="url(#clipPath238)">
            <g
               id="g242"
               transform="translate(4498.6035,1945.9362)">
              <path
                 inkscape:connector-curvature="0"
                 id="path240"
                 style="fill:#d9621d;fill-opacity:1;fill-rule:nonzero;stroke:none"
                 d="m 0,0 c -3.169,0 -6.338,0.415 -8.688,2.356 l -828.409,477.703 c -7.964,5.201 -11.132,15.926 -6.42,24.621 4.794,8.694 15.927,11.538 24.621,6.744 L 8.775,33.315 C 17.47,28.602 20.639,17.479 15.113,9.101 11.944,3.169 6.338,0 0,0" />
            </g>
          </g>
        </g>
      </g>
      <g
         transform="matrix(0.35277777,0,0,-0.35277777,-1175.2834,725.85135)"
         id="g248">
        <g
           id="g250" />
        <g
           id="g262">
          <g
             id="g260"
             clip-path="url(#clipPath254)">
            <g
               id="g258"
               transform="translate(2843.3418,1945.9362)">
              <path
                 inkscape:connector-curvature="0"
                 id="path256"
                 style="fill:#fc9a38;fill-opacity:1;fill-rule:nonzero;stroke:none"
                 d="m 0,0 c -6.338,0 -11.856,3.169 -15.845,9.101 -4.794,8.378 -1.625,19.501 6.338,24.214 l 827.672,478.109 c 9.507,4.794 19.826,1.95 25.352,-6.744 4.794,-8.695 1.625,-19.42 -7.151,-24.621 L 8.775,2.356 C 6.338,0.415 3.169,0 0,0" />
            </g>
          </g>
        </g>
      </g>
      <g
         transform="matrix(0.35277777,0,0,-0.35277777,-1175.2834,725.85135)"
         id="g264">
        <g
           id="g266" />
        <g
           id="g278">
          <g
             id="g276"
             clip-path="url(#clipPath270)">
            <g
               id="g274"
               transform="translate(3671.0137,512.4215)">
              <path
                 inkscape:connector-curvature="0"
                 id="path272"
                 style="fill:#d9621d;fill-opacity:1;fill-rule:nonzero;stroke:none"
                 d="m 0,0 c -10.319,0 -18.283,7.963 -18.283,17.877 v 955.811 c 0,9.914 7.964,17.876 18.283,17.876 9.507,0 17.47,-7.962 17.47,-17.876 V 17.877 C 17.47,7.963 9.507,0 0,0" />
            </g>
          </g>
        </g>
      </g>
      <g
         transform="matrix(0.35277777,0,0,-0.35277777,166.96849,256.17093)"
         id="g280">
        <path
           inkscape:connector-curvature="0"
           id="path282"
           style="fill:#42210b;fill-opacity:1;fill-rule:nonzero;stroke:none"
           d="m 0,0 c -0.798,-2.149 -1.566,-3.771 -2.307,-4.867 -0.741,-1.093 -1.851,-2.05 -3.331,-2.87 l -5.466,-3.031 -23.749,49.368 -1.025,-0.569 1.368,-19.916 0.854,-73.674 c 0,-1.824 -0.318,-3.223 -0.942,-4.195 -0.627,-0.974 -1.852,-1.967 -3.673,-2.975 l -9.395,-5.209 V 47.043 c 0,1.821 0.311,3.221 0.94,4.194 0.624,0.972 1.848,1.966 3.673,2.977 l 11.446,6.345 21.869,-43.577 3.758,-12.094 1.026,0.568 3.929,16.356 21.527,63.017 c 0.684,1.973 1.477,3.58 2.393,4.829 0.91,1.243 2.221,2.342 3.928,3.289 l 10.251,5.682 V -16.352 c 0,-1.824 -0.315,-3.223 -0.938,-4.193 -0.628,-0.976 -1.854,-1.969 -3.674,-2.977 l -9.055,-5.019 v 78.762 l 1.538,21.524 -1.025,-0.567 z" />
      </g>
      <g
         transform="matrix(0.35277777,0,0,-0.35277777,193.54808,213.89327)"
         id="g284">
        <path
           inkscape:connector-curvature="0"
           id="path286"
           style="fill:#42210b;fill-opacity:1;fill-rule:nonzero;stroke:none"
           d="m 0,0 v -114.981 c 0,-1.823 -0.314,-3.223 -0.94,-4.193 -0.625,-0.976 -1.851,-1.968 -3.673,-2.977 l -9.055,-5.019 v 114.981 c 0,1.821 0.313,3.219 0.94,4.193 0.624,0.972 1.85,1.966 3.673,2.977 z" />
      </g>
      <g
         transform="matrix(0.35277777,0,0,-0.35277777,218.13919,236.72681)"
         id="g288">
        <path
           inkscape:connector-curvature="0"
           id="path290"
           style="fill:#42210b;fill-opacity:1;fill-rule:nonzero;stroke:none"
           d="m 0,0 c 0,-5.924 -1.226,-10.789 -3.673,-14.593 -2.451,-3.809 -6.638,-7.352 -12.557,-10.634 l -20.844,-11.554 c -3.307,-1.831 -5.669,-2.317 -7.091,-1.453 -1.425,0.858 -2.477,2.755 -3.16,5.679 l 25.627,14.206 c 3.529,1.956 5.751,3.928 6.663,5.915 0.911,1.983 1.366,4.744 1.366,8.275 v 27.678 c 0,3.529 -0.484,5.767 -1.451,6.711 -0.97,0.942 -3.392,0.343 -7.261,-1.803 l -8.713,-4.829 c -5.925,-3.285 -10.108,-4.382 -12.558,-3.287 -2.452,1.087 -3.673,4.596 -3.673,10.521 V 60.9 c 0,5.921 1.221,10.785 3.673,14.595 2.45,3.804 6.633,7.35 12.558,10.633 l 20.33,11.269 c 3.301,1.831 5.663,2.314 7.091,1.454 1.422,-0.865 2.476,-2.758 3.16,-5.679 L -25.629,79.25 c -3.532,-1.958 -5.752,-3.931 -6.661,-5.915 -0.914,-1.987 -1.366,-4.746 -1.366,-8.275 V 41.823 c 0,-3.53 0.452,-5.785 1.366,-6.758 0.909,-0.977 3.129,-0.486 6.661,1.472 l 9.399,5.209 c 5.919,3.281 10.106,4.377 12.557,3.287 C -1.226,43.939 0,40.433 0,34.512 Z" />
      </g>
      <g
         transform="matrix(0.35277777,0,0,-0.35277777,242.00679,223.49644)"
         id="g292">
        <path
           inkscape:connector-curvature="0"
           id="path294"
           style="fill:#42210b;fill-opacity:1;fill-rule:nonzero;stroke:none"
           d="m 0,0 c 0,-5.925 -1.226,-10.791 -3.674,-14.594 -2.451,-3.81 -6.637,-7.352 -12.557,-10.634 l -20.845,-11.555 c -3.303,-1.831 -5.666,-2.315 -7.089,-1.452 -1.426,0.859 -2.478,2.754 -3.161,5.679 l 25.627,14.206 c 3.529,1.957 5.751,3.928 6.664,5.915 0.908,1.983 1.366,4.743 1.366,8.274 v 27.678 c 0,3.529 -0.485,5.767 -1.454,6.712 -0.968,0.942 -3.388,0.342 -7.259,-1.803 l -8.715,-4.829 c -5.923,-3.285 -10.108,-4.383 -12.555,-3.288 -2.452,1.088 -3.674,4.597 -3.674,10.521 v 30.068 c 0,5.921 1.222,10.785 3.674,14.595 2.447,3.805 6.632,7.35 12.555,10.634 l 20.332,11.27 c 3.303,1.83 5.665,2.312 7.091,1.454 1.422,-0.866 2.478,-2.759 3.16,-5.681 L -25.628,79.249 c -3.532,-1.958 -5.754,-3.932 -6.664,-5.916 -0.911,-1.987 -1.367,-4.745 -1.367,-8.273 V 41.823 c 0,-3.531 0.456,-5.787 1.367,-6.76 0.91,-0.976 3.132,-0.486 6.664,1.472 l 9.397,5.209 c 5.92,3.283 10.106,4.377 12.557,3.288 C -1.226,43.939 0,40.433 0,34.512 Z" />
      </g>
      <g
         transform="matrix(0.35277777,0,0,-0.35277777,254.78328,179.94994)"
         id="g296">
        <path
           inkscape:connector-curvature="0"
           id="path298"
           style="fill:#42210b;fill-opacity:1;fill-rule:nonzero;stroke:none"
           d="m 0,0 v -114.981 c 0,-1.824 -0.315,-3.224 -0.94,-4.193 -0.626,-0.976 -1.852,-1.969 -3.674,-2.977 l -9.053,-5.02 V -12.19 c 0,1.822 0.311,3.221 0.94,4.193 0.624,0.974 1.85,1.967 3.673,2.977 z" />
      </g>
      <g
         transform="matrix(0.35277777,0,0,-0.35277777,268.16403,207.79233)"
         id="g300">
        <path
           inkscape:connector-curvature="0"
           id="path302"
           style="fill:#42210b;fill-opacity:1;fill-rule:nonzero;stroke:none"
           d="m 0,0 c 0,-3.531 0.453,-5.786 1.368,-6.759 0.908,-0.976 3.13,-0.486 6.661,1.471 l 15.378,8.524 c 3.529,1.957 5.75,3.929 6.661,5.915 0.911,1.984 1.369,4.744 1.369,8.274 v 80.301 c 0,3.529 -0.458,5.783 -1.369,6.759 -0.911,0.974 -3.132,0.485 -6.661,-1.471 L 8.029,94.49 C 4.498,92.533 2.276,90.559 1.368,88.575 0.453,86.588 0,83.83 0,80.301 Z m -13.669,76.141 c 0,5.92 1.224,10.784 3.673,14.594 2.449,3.805 6.636,7.35 12.558,10.633 l 26.31,14.585 c 5.921,3.281 10.108,4.377 12.558,3.287 2.45,-1.094 3.674,-4.602 3.674,-10.522 V 21.585 C 45.104,15.661 43.88,10.796 41.43,6.992 38.98,3.183 34.793,-0.36 28.872,-3.642 L 2.562,-18.227 c -5.922,-3.282 -10.109,-4.38 -12.558,-3.286 -2.449,1.089 -3.673,4.597 -3.673,10.521 z" />
      </g>
      <g
         transform="matrix(0.35277777,0,0,-0.35277777,308.66666,175.87836)"
         id="g304">
        <path
           inkscape:connector-curvature="0"
           id="path306"
           style="fill:#42210b;fill-opacity:1;fill-rule:nonzero;stroke:none"
           d="m 0,0 9.396,-20.248 1.023,0.568 -2.732,24.453 v 67.998 c 0,1.822 0.311,3.219 0.94,4.193 0.624,0.972 1.848,1.967 3.674,2.977 l 9.053,5.019 V -30.021 c 0,-1.823 -0.315,-3.223 -0.941,-4.193 -0.626,-0.975 -1.851,-1.968 -3.671,-2.977 l -8.885,-4.925 -31.607,54.237 -9.568,22.203 -1.024,-0.569 2.563,-22.497 v -70.731 c 0,-1.823 -0.316,-3.224 -0.939,-4.194 -0.628,-0.975 -1.855,-1.967 -3.676,-2.977 l -9.054,-5.019 V 43.318 c 0,1.822 0.312,3.221 0.94,4.194 0.626,0.972 1.852,1.967 3.673,2.977 l 9.228,5.114 z" />
      </g>
      <g
         transform="matrix(0.35277777,0,0,-0.35277777,345.37001,171.927)"
         id="g308">
        <path
           inkscape:connector-curvature="0"
           id="path310"
           style="fill:#42210b;fill-opacity:1;fill-rule:nonzero;stroke:none"
           d="M 0,0 C -1.822,-1.011 -2.988,-1.345 -3.503,-1.001 -4.015,-0.662 -4.27,0.422 -4.27,2.246 v 5.295 l 14.864,8.239 c 3.528,1.956 5.75,3.928 6.663,5.915 0.91,1.985 1.366,4.743 1.366,8.274 v 80.3 c 0,3.529 -0.456,5.784 -1.366,6.76 -0.913,0.973 -3.135,0.485 -6.663,-1.472 L -11.105,103.53 V -6.156 l -13.667,-7.576 v 114.981 c 0,1.821 0.311,3.22 0.94,4.194 0.624,0.972 1.849,1.966 3.674,2.977 l 36.219,20.076 c 5.92,3.283 10.106,4.377 12.557,3.288 2.448,-1.094 3.674,-4.601 3.674,-10.522 V 34.13 c 0,-5.925 -1.226,-10.789 -3.674,-14.594 -2.451,-3.81 -6.637,-7.352 -12.557,-10.634 z" />
      </g>
      <g
         transform="matrix(0.35277777,0,0,-0.35277777,370.14196,138.06531)"
         id="g312">
        <path
           inkscape:connector-curvature="0"
           id="path314"
           style="fill:#42210b;fill-opacity:1;fill-rule:nonzero;stroke:none"
           d="m 0,0 v -52.45 c 0,-1.824 -0.315,-3.223 -0.94,-4.194 -0.626,-0.975 -1.852,-1.967 -3.674,-2.977 l -9.055,-5.019 V 38.724 c 0,5.921 1.224,10.784 3.675,14.594 2.447,3.805 6.632,7.35 12.556,10.634 l 24.601,13.636 c 5.921,3.283 10.108,4.377 12.559,3.288 2.449,-1.094 3.673,-4.601 3.673,-10.521 v -98.75 c 0,-1.824 -0.315,-3.224 -0.939,-4.194 -0.628,-0.975 -1.853,-1.967 -3.674,-2.976 l -9.056,-5.02 v 99.947 c 0,3.301 -0.426,5.457 -1.282,6.464 -0.851,1.006 -2.761,0.804 -5.72,-0.608 L 7.005,56.505 C 3.929,54.571 1.992,52.642 1.195,50.721 0.396,48.797 0,46.185 0,42.884 V 9.909 L 22.894,22.6 v -5.295 c 0,-1.824 -0.257,-3.192 -0.77,-4.1 -0.512,-0.912 -1.682,-1.872 -3.503,-2.882 z" />
      </g>
      <g
         transform="matrix(0.35277777,0,0,-0.35277777,394.91253,102.27508)"
         id="g316">
        <path
           inkscape:connector-curvature="0"
           id="path318"
           style="fill:#42210b;fill-opacity:1;fill-rule:nonzero;stroke:none"
           d="m 0,0 14.862,-29.861 6.495,-16.561 1.024,0.568 6.323,23.665 12.641,40.494 c 0.57,2.023 1.252,3.599 2.051,4.724 0.796,1.124 2.163,2.224 4.099,3.299 l 7.69,4.261 -27.336,-84.516 v -45.447 c 0,-1.938 -0.341,-3.408 -1.026,-4.412 -0.681,-1.006 -1.936,-2.014 -3.759,-3.023 l -8.882,-4.924 v 50.23 l -25.8,50.45 c -0.683,1.443 -0.598,2.716 0.258,3.815 0.853,1.099 2.192,2.156 4.013,3.167 z" />
      </g>
      <g
         transform="matrix(0.35277777,0,0,-0.35277777,156.87369,455.83179)"
         id="g320">
        <path
           inkscape:connector-curvature="0"
           id="path322"
           style="fill:#42210b;fill-opacity:1;fill-rule:nonzero;stroke:none"
           d="M 0,0 C 0,2.72 -0.354,4.45 -1.056,5.189 -1.759,5.928 -3.47,5.522 -6.187,3.967 L -25.538,-7.097 c 0.525,2.844 1.337,5.217 2.436,7.118 1.096,1.899 2.915,3.576 5.461,5.031 l 15.665,8.957 c 4.56,2.607 7.786,3.507 9.674,2.703 1.887,-0.811 2.83,-3.497 2.83,-8.059 v -19.217 c 0,-3.599 -0.393,-6.545 -1.184,-8.837 -0.788,-2.296 -2.457,-4.481 -5.001,-6.546 v -0.132 c 4.825,1.529 7.239,-1.083 7.239,-7.839 v -23.957 c 0,-4.563 -0.944,-8.329 -2.831,-11.292 -1.886,-2.969 -5.111,-5.754 -9.673,-8.362 l -15.665,-8.957 c -2.546,-1.455 -4.367,-1.861 -5.463,-1.215 -1.098,0.642 -1.907,2.089 -2.434,4.334 l 19.348,11.064 c 2.72,1.555 4.431,3.101 5.136,4.646 0.7,1.54 1.052,3.671 1.052,6.392 v 21.325 c 0,2.721 -0.571,4.325 -1.711,4.813 -1.143,0.489 -3.073,-0.044 -5.791,-1.6 l -11.057,-6.32 v 4.08 c 0,1.402 0.238,2.484 0.722,3.242 0.481,0.757 1.426,1.538 2.829,2.342 l 8.294,4.741 c 2.37,1.443 3.903,2.957 4.606,4.544 0.702,1.586 1.056,3.649 1.056,6.197 z" />
      </g>
      <g
         transform="matrix(0.35277777,0,0,-0.35277777,183.15563,467.96886)"
         id="g324">
        <path
           inkscape:connector-curvature="0"
           id="path326"
           style="fill:#42210b;fill-opacity:1;fill-rule:nonzero;stroke:none"
           d="m 0,0 c -1.405,-0.804 -2.303,-1.078 -2.699,-0.82 -0.395,0.255 -0.593,1.087 -0.593,2.491 V 5.752 L 8.161,12.3 c 2.718,1.555 4.429,3.101 5.132,4.645 0.703,1.54 1.056,3.671 1.056,6.393 v 61.866 c 0,2.722 -0.353,4.451 -1.056,5.19 -0.703,0.739 -2.414,0.332 -5.132,-1.222 L -8.557,79.613 V -4.894 l -10.531,-6.02 v 88.587 c 0,1.401 0.24,2.482 0.726,3.244 0.481,0.755 1.425,1.538 2.829,2.34 l 27.906,15.955 c 4.562,2.61 7.787,3.511 9.674,2.703 1.888,-0.809 2.832,-3.495 2.832,-8.058 v -67.13 c 0,-4.563 -0.944,-8.329 -2.832,-11.29 -1.887,-2.97 -5.112,-5.754 -9.674,-8.365 z" />
      </g>
      <g
         transform="matrix(0.35277777,0,0,-0.35277777,202.24006,424.55204)"
         id="g328">
        <path
           inkscape:connector-curvature="0"
           id="path330"
           style="fill:#42210b;fill-opacity:1;fill-rule:nonzero;stroke:none"
           d="m 0,0 v -88.586 c 0,-1.405 -0.24,-2.488 -0.722,-3.245 -0.485,-0.76 -1.429,-1.541 -2.831,-2.341 l -6.977,-3.989 v 88.587 c 0,1.402 0.242,2.483 0.725,3.242 0.482,0.757 1.426,1.538 2.829,2.342 z" />
      </g>
      <g
         transform="matrix(0.35277777,0,0,-0.35277777,213.2468,450.76442)"
         id="g332">
        <path
           inkscape:connector-curvature="0"
           id="path334"
           style="fill:#42210b;fill-opacity:1;fill-rule:nonzero;stroke:none"
           d="m 0,0 c -4.565,-2.61 -7.791,-3.512 -9.678,-2.702 -1.886,0.806 -2.829,3.491 -2.829,8.056 v 67.132 c 0,4.562 0.943,8.325 2.829,11.292 1.887,2.964 5.113,5.752 9.678,8.363 l 16.977,9.707 c 2.545,1.455 4.366,1.858 5.465,1.215 1.096,-0.645 1.908,-2.089 2.433,-4.334 L 4.21,86.914 C 1.488,85.359 -0.223,83.81 -0.922,82.268 -1.626,80.725 -1.976,78.594 -1.976,75.874 V 14.008 c 0,-2.722 0.35,-4.452 1.054,-5.19 0.699,-0.742 2.41,-0.331 5.132,1.224 l 20.665,11.816 v -4.081 c 0,-1.405 -0.196,-2.462 -0.593,-3.169 C 23.89,13.9 22.988,13.146 21.585,12.342 Z" />
      </g>
      <g
         transform="matrix(0.35277777,0,0,-0.35277777,230.79887,440.72814)"
         id="g336">
        <path
           inkscape:connector-curvature="0"
           id="path338"
           style="fill:#42210b;fill-opacity:1;fill-rule:nonzero;stroke:none"
           d="m 0,0 -8.029,-4.592 c -1.406,-0.804 -2.35,-1.103 -2.831,-0.894 -0.482,0.206 -0.722,1.011 -0.722,2.416 v 6.976 l 8.027,4.592 c 1.404,0.801 2.348,1.1 2.831,0.894 C -0.242,9.183 0,8.379 0,6.976 Z" />
      </g>
      <g
         transform="matrix(0.35277777,0,0,-0.35277777,258.52053,404.95771)"
         id="g340">
        <path
           inkscape:connector-curvature="0"
           id="path342"
           style="fill:#42210b;fill-opacity:1;fill-rule:nonzero;stroke:none"
           d="m 0,0 c 0,-2.543 -0.196,-4.743 -0.593,-6.589 -0.394,-1.851 -1.075,-3.512 -2.04,-4.985 -0.967,-1.474 -2.236,-2.837 -3.817,-4.09 -1.58,-1.255 -3.6,-2.585 -6.055,-3.99 l -7.635,-4.364 c -1.314,-0.753 -2.392,-1.479 -3.225,-2.173 -0.833,-0.699 -1.47,-1.433 -1.906,-2.212 -0.442,-0.779 -0.727,-1.686 -0.858,-2.726 -0.132,-1.04 -0.196,-2.351 -0.196,-3.929 v -21.324 c 0,-2.722 0.349,-4.454 1.054,-5.191 0.699,-0.74 2.41,-0.329 5.131,1.225 L 0,-48.832 v -4.08 c 0,-1.407 -0.243,-2.488 -0.725,-3.246 -0.482,-0.759 -1.426,-1.54 -2.828,-2.342 L -24.35,-70.392 c -4.565,-2.608 -7.791,-3.511 -9.675,-2.701 -1.889,0.806 -2.831,3.492 -2.831,8.056 v 26.59 c 0,2.544 0.198,4.739 0.592,6.591 0.395,1.849 1.075,3.509 2.04,4.984 0.965,1.474 2.239,2.836 3.817,4.091 1.581,1.254 3.598,2.583 6.057,3.988 l 7.633,4.365 c 1.317,0.754 2.391,1.476 3.226,2.174 0.831,0.694 1.468,1.431 1.908,2.209 0.437,0.777 0.725,1.687 0.855,2.729 0.13,1.039 0.197,2.351 0.197,3.928 v 17.904 c 0,2.717 -0.352,4.448 -1.052,5.187 -0.703,0.738 -2.414,0.333 -5.134,-1.222 L -36.065,7.417 c 0.525,2.846 1.336,5.218 2.434,7.117 1.096,1.9 2.916,3.576 5.462,5.032 l 15.664,8.957 c 4.563,2.607 7.787,3.506 9.676,2.704 C -0.944,30.415 0,27.73 0,23.169 Z" />
      </g>
      <g
         transform="matrix(0.35277777,0,0,-0.35277777,268.13302,414.04244)"
         id="g344">
        <path
           inkscape:connector-curvature="0"
           id="path346"
           style="fill:#42210b;fill-opacity:1;fill-rule:nonzero;stroke:none"
           d="m 0,0 c 0,-2.722 0.349,-4.453 1.052,-5.188 0.702,-0.743 2.413,-0.333 5.134,1.224 l 7.241,4.14 c 2.718,1.553 4.428,3.1 5.132,4.644 0.702,1.541 1.051,3.672 1.051,6.394 V 73.08 c 0,2.72 -0.349,4.45 -1.051,5.19 -0.704,0.738 -2.414,0.331 -5.132,-1.223 L 6.186,72.907 C 3.465,71.353 1.754,69.801 1.052,68.261 0.349,66.717 0,64.585 0,61.866 Z m -9.873,58.855 c 0,4.562 0.942,8.325 2.831,11.292 1.885,2.964 5.109,5.752 9.675,8.363 l 14.345,8.202 c 4.563,2.608 7.789,3.508 9.677,2.702 1.885,-0.81 2.829,-3.495 2.829,-8.057 V 14.226 C 29.484,9.662 28.54,5.898 26.655,2.934 24.767,-0.034 21.541,-2.82 16.978,-5.429 L 2.633,-13.631 c -4.566,-2.61 -7.79,-3.512 -9.675,-2.702 -1.889,0.805 -2.831,3.491 -2.831,8.057 z" />
      </g>
      <g
         transform="matrix(0.35277777,0,0,-0.35277777,288.84252,406.28718)"
         id="g348">
        <path
           inkscape:connector-curvature="0"
           id="path350"
           style="fill:#42210b;fill-opacity:1;fill-rule:nonzero;stroke:none"
           d="m 0,0 c 0,-1.403 -0.24,-2.488 -0.722,-3.244 -0.485,-0.759 -1.429,-1.54 -2.831,-2.342 l -6.977,-3.99 V 71.64 c 0,3.596 0.878,6.642 2.633,9.139 1.754,2.494 4.387,5.096 7.897,7.806 z" />
      </g>
      <g
         transform="matrix(0.35277777,0,0,-0.35277777,306.20995,365.10624)"
         id="g352">
        <path
           inkscape:connector-curvature="0"
           id="path354"
           style="fill:#42210b;fill-opacity:1;fill-rule:nonzero;stroke:none"
           d="M 0,0 C 1.316,0.752 2.149,0.985 2.502,0.706 2.85,0.423 3.072,-0.396 3.161,-1.747 v -4.081 l -22.642,-97.45 -10.004,-5.721 22.507,97.376 -28.429,-16.255 v 4.08 c 0,1.401 0.24,2.484 0.721,3.242 0.482,0.757 1.426,1.538 2.833,2.342 z" />
      </g>
      <g
         transform="matrix(0.35277777,0,0,-0.35277777,180.63588,349.5778)"
         id="g356">
        <path
           inkscape:connector-curvature="0"
           id="path358"
           style="fill:#933817;fill-opacity:1;fill-rule:nonzero;stroke:none"
           d="m 0,0 c -1.314,-3.54 -2.581,-6.21 -3.799,-8.012 -1.221,-1.799 -3.048,-3.377 -5.484,-4.724 l -8.997,-4.99 -39.091,81.26 -1.687,-0.936 2.249,-32.78 1.408,-121.272 c 0,-3.001 -0.519,-5.304 -1.548,-6.903 -1.033,-1.604 -3.049,-3.237 -6.047,-4.898 l -15.466,-8.573 V 77.435 c 0,2.995 0.515,5.298 1.548,6.903 1.027,1.598 3.043,3.234 6.046,4.897 l 18.84,10.446 35.997,-71.725 6.185,-19.914 1.689,0.936 6.469,26.927 35.433,103.727 c 1.124,3.245 2.435,5.893 3.939,7.948 1.495,2.046 3.654,3.853 6.466,5.411 l 16.873,9.354 V -26.918 c 0,-3.001 -0.518,-5.304 -1.545,-6.903 -1.034,-1.606 -3.051,-3.237 -6.046,-4.898 L 38.527,-46.981 V 82.663 l 2.53,35.43 -1.687,-0.935 z" />
      </g>
      <g
         transform="matrix(0.35277777,0,0,-0.35277777,224.38653,316.2982)"
         id="g360">
        <path
           inkscape:connector-curvature="0"
           id="path362"
           style="fill:#933817;fill-opacity:1;fill-rule:nonzero;stroke:none"
           d="m 0,0 v -86.336 c 0,-3.002 -0.519,-5.305 -1.548,-6.904 -1.033,-1.604 -3.049,-3.237 -6.047,-4.897 l -14.903,-8.261 V 63.741 c 0,9.746 2.013,17.75 6.047,24.021 4.028,6.262 10.919,12.098 20.669,17.503 l 40.497,22.448 c 9.746,5.4 16.635,7.203 20.669,5.411 4.028,-1.803 6.047,-7.572 6.047,-17.317 V -46.742 c 0,-2.999 -0.519,-5.305 -1.548,-6.903 -1.033,-1.605 -3.05,-3.236 -6.047,-4.898 L 48.933,-66.804 V 97.711 c 0,5.435 -0.704,8.981 -2.112,10.642 -1.405,1.653 -4.547,1.32 -9.42,-1.003 L 11.53,93.007 C 6.469,89.824 3.277,86.648 1.97,83.49 0.655,80.32 0,76.021 0,70.586 V 16.311 L 37.684,37.2 v -8.719 c 0,-3.001 -0.423,-5.252 -1.267,-6.748 -0.845,-1.502 -2.768,-3.081 -5.766,-4.741 z" />
      </g>
      <g
         transform="matrix(0.35277777,0,0,-0.35277777,278.15618,319.62856)"
         id="g364">
        <path
           inkscape:connector-curvature="0"
           id="path366"
           style="fill:#933817;fill-opacity:1;fill-rule:nonzero;stroke:none"
           d="M 0,0 C -2.999,-1.664 -4.921,-2.215 -5.766,-1.651 -6.609,-1.089 -7.03,0.694 -7.03,3.695 v 8.718 l 24.467,13.562 c 5.809,3.219 9.463,6.462 10.967,9.735 1.497,3.266 2.249,7.807 2.249,13.62 v 132.175 c 0,5.807 -0.752,9.518 -2.249,11.125 -1.504,1.603 -5.158,0.798 -10.967,-2.421 L -18.279,170.411 V -10.133 l -22.496,-12.471 v 189.263 c 0,2.995 0.512,5.298 1.544,6.903 1.029,1.598 3.047,3.235 6.046,4.898 l 59.62,33.047 c 9.745,5.402 16.635,7.206 20.669,5.412 4.03,-1.802 6.045,-7.572 6.045,-17.318 V 56.177 c 0,-9.749 -2.015,-17.759 -6.045,-24.02 C 43.07,25.886 36.18,20.055 26.435,14.651 Z" />
      </g>
      <g
         transform="matrix(0.35277777,0,0,-0.35277777,331.03358,251.42878)"
         id="g368">
        <path
           inkscape:connector-curvature="0"
           id="path370"
           style="fill:#933817;fill-opacity:1;fill-rule:nonzero;stroke:none"
           d="m 0,0 c 5.81,3.222 9.465,6.464 10.968,9.735 1.5,3.266 2.251,7.809 2.251,13.622 v 38.247 c 0,5.807 -0.751,9.518 -2.251,11.125 C 9.465,74.33 5.81,73.527 0,70.306 L -34.308,51.289 v -172.951 c 0,-3.003 -0.518,-5.307 -1.546,-6.906 -1.033,-1.603 -3.051,-3.236 -6.046,-4.897 l -14.905,-8.261 V 47.537 c 0,2.995 0.513,5.298 1.546,6.903 1.029,1.597 3.046,3.234 6.045,4.898 L 9,91.605 c 9.747,5.403 16.637,7.206 20.671,5.411 4.028,-1.8 6.046,-7.571 6.046,-17.317 V 30.204 C 35.717,21.39 34.121,14.084 30.936,8.291 27.745,2.486 22.31,-2.916 14.624,-7.922 l 28.404,-78.466 -14.342,-7.95 c -3.001,-1.664 -5.203,-2.369 -6.61,-2.117 -1.405,0.249 -2.577,1.616 -3.514,4.099 l -26.153,71.837 -8.438,-4.674 c -2.999,-1.664 -4.921,-2.216 -5.766,-1.652 -0.842,0.561 -1.264,2.344 -1.264,5.347 v 8.717 z" />
      </g>
      <g
         transform="matrix(0.35277777,0,0,-0.35277777,365.35879,201.84559)"
         id="g372">
        <path
           inkscape:connector-curvature="0"
           id="path374"
           style="fill:#933817;fill-opacity:1;fill-rule:nonzero;stroke:none"
           d="m 0,0 v -189.263 c 0,-3.001 -0.518,-5.303 -1.546,-6.903 -1.032,-1.604 -3.051,-3.236 -6.046,-4.897 l -14.904,-8.263 v 189.264 c 0,2.995 0.515,5.297 1.546,6.903 1.027,1.597 3.046,3.234 6.045,4.898 z" />
      </g>
      <g
         transform="matrix(0.35277777,0,0,-0.35277777,394.03024,255.39891)"
         id="g376">
        <path
           inkscape:connector-curvature="0"
           id="path378"
           style="fill:#933817;fill-opacity:1;fill-rule:nonzero;stroke:none"
           d="M 0,0 C -3.002,-1.665 -4.923,-2.213 -5.766,-1.65 -6.608,-1.087 -7.03,0.694 -7.03,3.695 v 8.718 l 24.465,13.563 c 5.809,3.22 9.465,6.462 10.966,9.735 1.5,3.266 2.252,7.808 2.252,13.621 v 132.175 c 0,5.807 -0.752,9.518 -2.252,11.125 -1.501,1.601 -5.157,0.798 -10.966,-2.423 L -18.279,170.411 V -10.133 l -22.498,-12.471 v 189.263 c 0,2.996 0.514,5.299 1.548,6.904 1.025,1.597 3.043,3.234 6.044,4.898 l 59.621,33.047 c 9.744,5.402 16.632,7.205 20.668,5.41 4.029,-1.8 6.045,-7.571 6.045,-17.317 V 56.178 c 0,-9.75 -2.016,-17.759 -6.045,-24.022 C 43.068,25.887 36.18,20.056 26.436,14.653 Z" />
      </g>
    </g>
  </g>
</svg>
